# xmcd
#
# Track frame offsets: 
#        150
#        12177
#        21114
#        33114
#        47046
#        58584
#        67689
#        79157
#        92375
#        102678
#        117468
#        130948
#        139393
#        148888
#        162943
#        173365
#        182687
#        198185
#        214228
#        223730
#        242620
#        251465
#        265388
#        292776
#        312716
#        327014
#
# Disc length: 4461 seconds
#
# Revision: 0
# Processed by: cddbd v1.5.2PL0 Copyright (c) Steve Scherf et al.
# Submitted via: ExactAudioCopy v0.99pb5
#
DISCID=75116b1a
DTITLE=Various Artist - High Noon and other great movie themes
DYEAR=1900
DGENRE=Country
TTITLE0=High Noon
TTITLE1=The Magnificent 7
TTITLE2=Rio Bravo
TTITLE3=Vera Cruz
TTITLE4=The 3:10 To Yuma
TTITLE5=River Of No Return
TTITLE6=The Virginian
TTITLE7=Deguello (No Quarter) - from "The Alamo"
TTITLE8=Green Leaves Of Summer - from "The Alamo"
TTITLE9=El Mercenario
TTITLE10=The Man From The Lost Valley
TTITLE11=Gunfight At The O.K. Corral
TTITLE12=How The West Was Won
TTITLE13=Shane
TTITLE14=Sixty-Seconds To What - from "For A Few Dollars More"
TTITLE15=Square Dance - from "A Fistfull Of Dollars"
TTITLE16=Apres l'Explosion - from "Once Upon A Time In The West"
TTITLE17=Chi Mai - from "Le Professionnel"
TTITLE18=Once Upon A Time in America
TTITLE19=Cockeye's Song - from "Once Upon A Time in America"
TTITLE20=La Libertad - from "Alibi"
TTITLE21=My Name Is Nobody
TTITLE22=Good Luck Jack - from "My Name Is Nobody"
TTITLE23=Orient Express
TTITLE24=Le Train - from "Orient Express"
TTITLE25=Bonanza
EXTD=
EXTT0=
EXTT1=
EXTT2=
EXTT3=
EXTT4=
EXTT5=
EXTT6=
EXTT7=
EXTT8=
EXTT9=
EXTT10=
EXTT11=
EXTT12=
EXTT13=
EXTT14=
EXTT15=
EXTT16=
EXTT17=
EXTT18=
EXTT19=
EXTT20=
EXTT21=
EXTT22=
EXTT23=
EXTT24=
EXTT25=
PLAYORDER=
